<svg xmlns="http://www.w3.org/2000/svg" width="380" height="405" viewBox="0 0 380 405">
  <defs>
    <style>
      .cls-1 {
        fill-rule: evenodd;
      }
    </style>
  </defs>
  <path id="Forma_1" data-name="Forma 1" class="cls-1" d="M276,113c2.076,0.372,1.924.242,3,1,0.8,1.021.355,0.274,1,2,7.151,9.181-4.5,39.389-8,46-2.713,5.126-8.033,6.731-11,11-8.163,11.746-12.242,31.258-20,44-7.378,12.119-17.509,32.925-10,54,14.7,41.243,73.515,46.822,109,68,13.692,8.172,39.058,13.9,40,34-17.677,20.287-40.284,17.973-71,25-32.627,7.464-71.554,6.993-110,7-30.567,0-80.147-1-73-1-11.7-2.586-26.781-1.481-38-4l-17-1c-18.214-4.255-37.786-6.537-53-13C8.836,382.107.552,380.481,0,368c3.986-4.07,5.393-10.544,10-14,18.032-13.524,41.277-23.594,63-33,33.126-14.344,65.527-17.977,75-56,1.969-7.9,1.36-25.565-1-32-2.109-5.751-8.761-11.687-12-17-7.835-12.851-10.664-27.35-18-41-2.167-4.031-7.561-5.482-10-9-7.237-10.438-14.154-34.805-11-52a15.705,15.705,0,0,1,5-1c-0.24-54.041,18.659-94.547,60-108,10.986-3.575,32.376-6.772,47-3,8.047,2.075,18.323,4.847,25,9C262.6,29.41,273.133,67.756,276,113Z"/>
</svg>
