<svg xmlns="http://www.w3.org/2000/svg" width="460" height="460" viewBox="0 0 460 460"><defs><style>.cls-1 {fill-rule: evenodd;}</style></defs>
  <path id="Forma_1" data-name="Forma 1" class="cls-1" d="M138,368H83l-28-1v-1H51v-1l-9-2v-1l-6-2v-1H34v-1l-3-1-1-2H28l-3-4H23l-4-5-2-1v-2l-4-3v-2l-2-1-1-4-2-1v-2H7l-1-4H5l-2-9H2L1,306c-3.015-10.647-1-30.242-1-43V120C0,94.417-2.979,60.142,5,42H6l1-4H8V36l2-1,1-4,2-1V28l4-3V23l5-4,1-2h2l3-4h2l1-2,3-1V9h2V8l6-2V5l9-2V2h4V1L82,0H375l30,1V2h4V3l9,2V6l6,2V9h2v1l3,1,1,2h2l3,4h2l4,5,2,1v2l4,3v2l2,1c4.094,6.409,7.614,16.116,10,24v7c2.121,7.486,1,19.8,1,29V268c0,14.689,1.713,33.446-2,45v4c-9.372,26.56-25.391,41.619-53,50h-7c-7.474,2.136-19.812,1-29,1H260v1h-2l-2,3h-2l-2,3h-2l-2,3h-2l-2,3h-2l-2,3h-2l-2,3h-2l-2,3h-2l-2,3h-2l-2,3h-2l-2,3h-2l-2,3h-2l-1,2h-2l-3,4h-2l-2,3h-2l-2,3h-2l-2,3h-2l-1,2h-2l-3,4h-2l-2,3h-2l-1,2h-2l-3,4h-2l-1,2h-2l-2,3h-2l-2,3h-2l-2,3h-2l-2,3h-2l-2,3h-2l-2,3h-2l-2,3h-2l-1,2-4,2V368ZM64,46v1l-6,1-1,2H55l-1,2-5,4-1,4H47c-1.771,4.082-1,12.341-1,18V289c0,8.888-.565,17.686,3,23l3,2,3,4h2l1,2c6.549,3.47,22.214,2,32,2h93c2.934,7.974,1.047,31.307,1,42h-1v1h1l-1,2h1v1l61-46H365c10.746,0,29.791,1.841,37-2l1-2h2l3-4,3-2c4.625-6.912,3-21.778,3-33V94c0-12.285,2.158-30.312-3-38l-4-3-2-3c-6.952-4.868-19.087-4-31-4H64ZM166,61l1,3h1v3l2,1v3h1q0.5,2,1,4h1q0.5,3,1,6h1q0.5,2.5,1,5h1v2h1v3h1v2h1v4h1v2h1q0.5,2.5,1,5l2,1c0.6,1.279-.777-0.017-1,1v1h1v3h1v9h-1v4h-1q-1,3-2,6h-1v2l-2,1v2l-12,10v6c2.244,2.056.744,2.2,2,5h1v2h1v3l2,1v3l2,1v2h1v2h1v2h1v2h1v2l3,2q0.5,2,1,4l2,1v2l3,2v2l3,2v2l6,5v2l12,11,5,6h2l2,3h1q0.5,1,1,2h2q0.5,1,1,2h1q0.5,1,1,2h2v1a7.862,7.862,0,0,0,4,2v2a19.533,19.533,0,0,1,7,3q0.5,1,1,2h2q0.5,1,1,2l4,1,2,3,9,3v1c1.61,1.175,4.427,4.193,8,3v-1h2l2-3h2l3-4,13-12,4-5h2l1-2h2l1-2,8-1v-1h1v1h4v1l4,1,1,2h2v1h2l3,4h2l2,3h2l3,4h2l1,2,4,1,5,6h2l5,7q0.5,3.5,1,7h-1v5c-3.365,2.084-2.88,3.961-5,7l-3,2v2l-3,2-2,3h-1v2l-5,4c-2.4,2.647-1.81,4.871-6,6v2a8.506,8.506,0,0,0-4,2v1h-2v1l-4,1v1l-6,1v1H298a77.6,77.6,0,0,1-29-6l-6-1v-1h-2v-1l-5-1v-1l-6-1v-1h-2v-1l-7-1-2-3-6-1-1-2-4-1-1-2h-2v-1h-2v-1h-2v-1h-2v-1l-3-1-1-2-4-1-1-2h-2l-1-2h-2l-2-3h-2l-1-2h-2l-3-4h-2q-0.5-1-1-2l-3-1v-1c-1.753-1.443-2.415-2.267-5-3v-2c-4.061-1.074-5.54-3.428-8-6l-2-1v-2l-5-3v-2l-10-9v-2l-2-1v-2l-5-4v-2l-2-1q-0.5-1.5-1-3h-1v-2l-3-2v-2l-2-1q-0.5-1.5-1-3h-1v-2l-3-2v-3h-1q-0.5-1.5-1-3l-2-1v-2h-1v-2h-1v-2h-1v-2h-1v-2h-1v-2h-1v-2h-1v-2l-2-1-3-10h-1v-2h-1v-3h-1q-0.5-2-1-4h-1q-0.5-3-1-6h-1v-2h-1v-3h-1v-3h-1v-5h-1v-6c-2.551-8.865-.6-21.185,2-28V95h1q0.5-2,1-4h1V88l2-1q0.5-2,1-4l4-3V78l3-2V74l3-2V71h2l3-4h2l2-3h2l1-2a29.711,29.711,0,0,1,17-5v1h3v1h2v1Z"/>
</svg>
