<svg xmlns="http://www.w3.org/2000/svg" width="188" height="255" viewBox="0 0 188 255">
  <defs>
    <style>
      .cls-1 {
        fill-rule: evenodd;
      }
    </style>
  </defs>
  <path id="Forma_1" data-name="Forma 1" class="cls-1" d="M67,0h55a13.294,13.294,0,0,0,3,4c0.085,15.482,1.506,34.238-1,48-1.8.944-1.574,1.385-4,2-2.291,2.021-9.949,1-14,1H68c-1.44-2.415-4.059-4.122-5-7V35c0-7.684-1.824-26.9,1-32h1ZM46,10c1.328,7.42,1.012,18.026,1,27-4.26,2.246-6.268,2.086-13,2-1.139,1.139,0,.4-2,1-5.045,9.3-3,29.862-3,44V221h1v2l3,2c3.666,3.62,23.341,2,31,2h88v-1l5-1c5.558-12.526,3-39.366,3-57V93c0-16.514.377-35.088-1-50l-4-3V39H144s-0.183-.678-2-1V11c7.822-2.879,30.507-1.047,41-1,1.127,1.719.633,1.355,3,2q0.5,2,1,4h1V249h-1q-0.5,2-1,4l-4,1v1H6v-1l-4-1-1-4H0V16H1l1-4H4l1-2H46Zm71,97a34.218,34.218,0,0,1,8,1c0.945,1.8,1.385,1.574,2,4h1v6l-19,20L88,158H83L60,136v-7c1.139-1.139.4,0,1-2,3.134-1.418,4.394-2.752,9-3,1.734,1.977,2.328.846,4,2l11,12h1v-1Z"/>
</svg>
